<?xml version="1.0" encoding="UTF-8" standalone="no"?>
<!-- Created with Inkscape (http://www.inkscape.org/) -->

<svg
   xmlns:dc="http://purl.org/dc/elements/1.1/"
   xmlns:cc="http://creativecommons.org/ns#"
   xmlns:rdf="http://www.w3.org/1999/02/22-rdf-syntax-ns#"
   xmlns:svg="http://www.w3.org/2000/svg"
   xmlns="http://www.w3.org/2000/svg"
   xmlns:sodipodi="http://sodipodi.sourceforge.net/DTD/sodipodi-0.dtd"
   xmlns:inkscape="http://www.inkscape.org/namespaces/inkscape"
   width="210mm"
   height="297mm"
   viewBox="0 0 210 297"
   version="1.1"
   id="svg8"
   inkscape:version="0.92.1 r15371"
   sodipodi:docname="drawingtesttest1.svg">
  <defs
     id="defs2" />
  <sodipodi:namedview
     id="base"
     pagecolor="#ffffff"
     bordercolor="#666666"
     borderopacity="1.0"
     inkscape:pageopacity="0.0"
     inkscape:pageshadow="2"
     inkscape:zoom="0.35"
     inkscape:cx="218.69045"
     inkscape:cy="560"
     inkscape:document-units="mm"
     inkscape:current-layer="layer1"
     showgrid="false"
     inkscape:window-width="1680"
     inkscape:window-height="987"
     inkscape:window-x="-8"
     inkscape:window-y="-8"
     inkscape:window-maximized="1" />
  <metadata
     id="metadata5">
    <rdf:RDF>
      <cc:Work
         rdf:about="">
        <dc:format>image/svg+xml</dc:format>
        <dc:type
           rdf:resource="http://purl.org/dc/dcmitype/StillImage" />
        <dc:title></dc:title>
      </cc:Work>
    </rdf:RDF>
  </metadata>
  <g
     inkscape:label="Layer 1"
     inkscape:groupmode="layer"
     id="layer1">
    <ellipse
       id="path3958"
       cx="104.32143"
       cy="84.199409"
       rx="52.160713"
       ry="51.026787"
       style="stroke-width:0.26458332" />
    <rect
       id="rect3966"
       width="117.17262"
       height="89.202377"
       x="20.410715"
       y="157.90477"
       style="stroke-width:0.26458332" />
    <rect
       id="rect3968"
       width="61.232143"
       height="33.261906"
       x="105.07738"
       y="254.66667"
       style="stroke-width:0.26458332" />
    <rect
       id="rect3970"
       width="45.357143"
       height="32.505951"
       x="160.2619"
       y="185.11905"
       style="stroke-width:0.26458332" />
    <rect
       id="rect3972"
       width="50.648811"
       height="28.726189"
       x="9.0714283"
       y="12.761905"
       style="stroke-width:0.26458332" />
    <path
       id="path3974"
       sodipodi:type="arc"
       sodipodi:cx="29.104166"
       sodipodi:cy="129.55655"
       sodipodi:rx="16.252975"
       sodipodi:ry="16.252975"
       sodipodi:start="0"
       sodipodi:end="6.2805542"
       d="m 45.357141,129.55655 a 16.252975,16.252975 0 0 1 -16.242284,16.25297 16.252975,16.252975 0 0 1 -16.263652,-16.23159 16.252975,16.252975 0 0 1 16.220889,-16.27432 16.252975,16.252975 0 0 1 16.284991,16.21018 l -16.252919,0.0428 z"
       style="stroke-width:0.26458332" />
    <path
       style="stroke-width:2.85714293;fill:#000080"
       d="M 78.690449,765.66254 V 598.51969 h 220.000001 220 V 765.66254 932.8054 h -220 -220.000001 z"
       id="path4208"
       inkscape:connector-curvature="0"
       transform="scale(0.26458333)" />
    <path
       style="fill:#ff0000;stroke-width:2.85714293"
       d="M 365.83331,508.15014 C 267.0464,492.80137 194.31676,406.22392 199.43478,310.06915 c 3.77436,-70.91088 42.64889,-130.003 106.39853,-161.73352 67.39437,-33.54464 143.48814,-27.18317 205.67825,17.19478 72.87683,52.00381 98.81786,151.29253 60.47335,231.46018 -32.32466,67.58181 -94.79536,108.88218 -168.6152,111.47427 -15.93074,0.55937 -32.82212,0.41777 -37.5364,-0.31472 z"
       id="path4210"
       inkscape:connector-curvature="0"
       transform="scale(0.26458333)" />
    <path
       style="fill:#ff0000;stroke-width:2.85714293"
       d="M 35.833307,102.8054 V 49.948256 h 94.285713 94.28572 V 102.8054 155.66254 H 130.11902 35.833307 Z"
       id="path4212"
       inkscape:connector-curvature="0"
       transform="scale(0.26458333)" />
    <path
       style="fill:#00ffff;stroke-width:2.85714293"
       d="M 35.833307,102.8054 V 49.948256 h 94.285713 94.28572 V 102.8054 155.66254 H 130.11902 35.833307 Z"
       id="path4214"
       inkscape:connector-curvature="0"
       transform="scale(0.26458333)" />
    <path
       style="fill:#00ff00;stroke-width:2.85714293"
       d="m 607.26188,761.37683 v -60 h 84.28571 84.28572 v 60 60 h -84.28572 -84.28571 z"
       id="path4216"
       inkscape:connector-curvature="0"
       transform="scale(0.26458333)" />
    <path
       id="path4218"
       transform="scale(0.26458333)"
       style="fill:#ff00ff;stroke-width:2.85714293"
       d="m 398.69141,964.23438 v 61.42772 61.4297 h 114.28515 114.28516 v -61.4297 -61.42772 H 512.97656 Z" />
  </g>
</svg>
